<mxfile host="app.diagrams.net" modified="2021-04-26T15:14:41.794Z" agent="5.0 (X11; Linux x86_64) AppleWebKit/537.36 (KHTML, like Gecko) Chrome/88.0.4324.150 Safari/537.36" etag="wUK2l-qsYKJlV4QY0sqw" version="14.6.6" type="github">
  <diagram id="a_5FdtYtCZj7OGpo-Fc9" name="Page-1">
    <mxGraphModel dx="3689" dy="774" grid="1" gridSize="10" guides="1" tooltips="1" connect="1" arrows="1" fold="1" page="1" pageScale="1" pageWidth="2339" pageHeight="3300" math="0" shadow="0">
      <root>
        <mxCell id="0" />
        <mxCell id="1" parent="0" />
        <mxCell id="4YIqJ9_skGSq3MTqp_Pp-7" value="service-1" style="shape=module;align=left;spacingLeft=20;align=center;verticalAlign=middle;html=1;" parent="1" vertex="1">
          <mxGeometry x="-350" y="650" width="210" height="55" as="geometry" />
        </mxCell>
        <mxCell id="4YIqJ9_skGSq3MTqp_Pp-8" value="package" style="shape=folder;fontStyle=1;spacingTop=10;tabWidth=40;tabHeight=14;tabPosition=left;html=1;" parent="1" vertex="1">
          <mxGeometry x="610" y="210" width="180" height="130" as="geometry" />
        </mxCell>
        <mxCell id="4YIqJ9_skGSq3MTqp_Pp-9" value="ROOT" style="html=1;dropTarget=0;" parent="1" vertex="1">
          <mxGeometry x="270" y="40" width="180" height="90" as="geometry" />
        </mxCell>
        <mxCell id="4YIqJ9_skGSq3MTqp_Pp-10" value="" style="shape=module;jettyWidth=8;jettyHeight=4;" parent="4YIqJ9_skGSq3MTqp_Pp-9" vertex="1">
          <mxGeometry x="1" width="20" height="20" relative="1" as="geometry">
            <mxPoint x="-27" y="7" as="offset" />
          </mxGeometry>
        </mxCell>
        <mxCell id="4YIqJ9_skGSq3MTqp_Pp-11" value="LAYOUT" style="html=1;dropTarget=0;" parent="1" vertex="1">
          <mxGeometry x="-210" y="210" width="180" height="90" as="geometry" />
        </mxCell>
        <mxCell id="4YIqJ9_skGSq3MTqp_Pp-12" value="" style="shape=module;jettyWidth=8;jettyHeight=4;" parent="4YIqJ9_skGSq3MTqp_Pp-11" vertex="1">
          <mxGeometry x="1" width="20" height="20" relative="1" as="geometry">
            <mxPoint x="-27" y="7" as="offset" />
          </mxGeometry>
        </mxCell>
        <mxCell id="4YIqJ9_skGSq3MTqp_Pp-13" value="SIDEBAR" style="html=1;dropTarget=0;" parent="1" vertex="1">
          <mxGeometry x="-390" y="390" width="180" height="90" as="geometry" />
        </mxCell>
        <mxCell id="4YIqJ9_skGSq3MTqp_Pp-14" value="" style="shape=module;jettyWidth=8;jettyHeight=4;" parent="4YIqJ9_skGSq3MTqp_Pp-13" vertex="1">
          <mxGeometry x="1" width="20" height="20" relative="1" as="geometry">
            <mxPoint x="-27" y="7" as="offset" />
          </mxGeometry>
        </mxCell>
        <mxCell id="4YIqJ9_skGSq3MTqp_Pp-15" value="CONTENT" style="html=1;dropTarget=0;" parent="1" vertex="1">
          <mxGeometry x="-70" y="380" width="180" height="90" as="geometry" />
        </mxCell>
        <mxCell id="4YIqJ9_skGSq3MTqp_Pp-16" value="" style="shape=module;jettyWidth=8;jettyHeight=4;" parent="4YIqJ9_skGSq3MTqp_Pp-15" vertex="1">
          <mxGeometry x="1" width="20" height="20" relative="1" as="geometry">
            <mxPoint x="-27" y="7" as="offset" />
          </mxGeometry>
        </mxCell>
        <mxCell id="4YIqJ9_skGSq3MTqp_Pp-17" value="service-2" style="shape=module;align=left;spacingLeft=20;align=center;verticalAlign=middle;html=1;" parent="1" vertex="1">
          <mxGeometry x="-80" y="650" width="210" height="55" as="geometry" />
        </mxCell>
        <mxCell id="4YIqJ9_skGSq3MTqp_Pp-18" value="service-2" style="shape=module;align=left;spacingLeft=20;align=center;verticalAlign=middle;html=1;" parent="1" vertex="1">
          <mxGeometry x="180" y="650" width="210" height="55" as="geometry" />
        </mxCell>
        <mxCell id="4YIqJ9_skGSq3MTqp_Pp-19" value="Use" style="endArrow=open;endSize=12;dashed=1;html=1;entryX=0;entryY=1;entryDx=0;entryDy=0;" parent="1" target="4YIqJ9_skGSq3MTqp_Pp-11" edge="1">
          <mxGeometry width="160" relative="1" as="geometry">
            <mxPoint x="-310" y="389" as="sourcePoint" />
            <mxPoint x="-150" y="389" as="targetPoint" />
          </mxGeometry>
        </mxCell>
        <mxCell id="4YIqJ9_skGSq3MTqp_Pp-20" value="ERROR_PAGE" style="html=1;dropTarget=0;" parent="1" vertex="1">
          <mxGeometry x="-610" y="220" width="180" height="90" as="geometry" />
        </mxCell>
        <mxCell id="4YIqJ9_skGSq3MTqp_Pp-21" value="" style="shape=module;jettyWidth=8;jettyHeight=4;" parent="4YIqJ9_skGSq3MTqp_Pp-20" vertex="1">
          <mxGeometry x="1" width="20" height="20" relative="1" as="geometry">
            <mxPoint x="-27" y="7" as="offset" />
          </mxGeometry>
        </mxCell>
        <mxCell id="4YIqJ9_skGSq3MTqp_Pp-22" value="Use" style="endArrow=open;endSize=12;dashed=1;html=1;entryX=0;entryY=0.5;entryDx=0;entryDy=0;" parent="1" target="4YIqJ9_skGSq3MTqp_Pp-9" edge="1">
          <mxGeometry width="160" relative="1" as="geometry">
            <mxPoint x="-490" y="220" as="sourcePoint" />
            <mxPoint x="-330" y="1" as="targetPoint" />
          </mxGeometry>
        </mxCell>
        <mxCell id="4YIqJ9_skGSq3MTqp_Pp-23" value="Use" style="endArrow=open;endSize=12;dashed=1;html=1;entryX=1;entryY=1;entryDx=0;entryDy=0;" parent="1" target="4YIqJ9_skGSq3MTqp_Pp-11" edge="1">
          <mxGeometry width="160" relative="1" as="geometry">
            <mxPoint x="20" y="380" as="sourcePoint" />
            <mxPoint x="120" y="291" as="targetPoint" />
          </mxGeometry>
        </mxCell>
        <mxCell id="4YIqJ9_skGSq3MTqp_Pp-24" value="package" style="shape=folder;fontStyle=1;spacingTop=10;tabWidth=40;tabHeight=14;tabPosition=left;html=1;" parent="1" vertex="1">
          <mxGeometry x="620" y="220" width="180" height="130" as="geometry" />
        </mxCell>
        <mxCell id="4YIqJ9_skGSq3MTqp_Pp-25" value="package" style="shape=folder;fontStyle=1;spacingTop=10;tabWidth=40;tabHeight=14;tabPosition=left;html=1;" parent="1" vertex="1">
          <mxGeometry x="630" y="230" width="180" height="130" as="geometry" />
        </mxCell>
        <mxCell id="4YIqJ9_skGSq3MTqp_Pp-26" value="package" style="shape=folder;fontStyle=1;spacingTop=10;tabWidth=40;tabHeight=14;tabPosition=left;html=1;" parent="1" vertex="1">
          <mxGeometry x="640" y="240" width="180" height="130" as="geometry" />
        </mxCell>
        <mxCell id="4YIqJ9_skGSq3MTqp_Pp-27" value="package" style="shape=folder;fontStyle=1;spacingTop=10;tabWidth=40;tabHeight=14;tabPosition=left;html=1;" parent="1" vertex="1">
          <mxGeometry x="650" y="250" width="180" height="130" as="geometry" />
        </mxCell>
        <mxCell id="4YIqJ9_skGSq3MTqp_Pp-28" value="package" style="shape=folder;fontStyle=1;spacingTop=10;tabWidth=40;tabHeight=14;tabPosition=left;html=1;" parent="1" vertex="1">
          <mxGeometry x="660" y="260" width="180" height="130" as="geometry" />
        </mxCell>
        <mxCell id="4YIqJ9_skGSq3MTqp_Pp-29" value="package" style="shape=folder;fontStyle=1;spacingTop=10;tabWidth=40;tabHeight=14;tabPosition=left;html=1;" parent="1" vertex="1">
          <mxGeometry x="670" y="270" width="180" height="130" as="geometry" />
        </mxCell>
        <mxCell id="4YIqJ9_skGSq3MTqp_Pp-30" value="package" style="shape=folder;fontStyle=1;spacingTop=10;tabWidth=40;tabHeight=14;tabPosition=left;html=1;" parent="1" vertex="1">
          <mxGeometry x="680" y="280" width="180" height="130" as="geometry" />
        </mxCell>
        <mxCell id="4YIqJ9_skGSq3MTqp_Pp-31" value="package" style="shape=folder;fontStyle=1;spacingTop=10;tabWidth=40;tabHeight=14;tabPosition=left;html=1;" parent="1" vertex="1">
          <mxGeometry x="690" y="290" width="180" height="130" as="geometry" />
        </mxCell>
        <mxCell id="4YIqJ9_skGSq3MTqp_Pp-32" value="&lt;span style=&quot;background-color: rgb(255 , 255 , 255)&quot;&gt;&lt;font style=&quot;font-size: 14px&quot;&gt;query-string&lt;/font&gt;&lt;/span&gt;" style="shape=folder;fontStyle=1;spacingTop=10;tabWidth=40;tabHeight=14;tabPosition=left;html=1;" parent="1" vertex="1">
          <mxGeometry x="1300" y="310" width="180" height="130" as="geometry" />
        </mxCell>
        <mxCell id="4YIqJ9_skGSq3MTqp_Pp-33" value="&lt;font&gt;&lt;font style=&quot;font-size: 14px&quot;&gt;node-fetch&lt;/font&gt;&lt;br&gt;&lt;/font&gt;" style="shape=folder;fontStyle=1;spacingTop=10;tabWidth=40;tabHeight=14;tabPosition=left;html=1;" parent="1" vertex="1">
          <mxGeometry x="1560" y="310" width="180" height="130" as="geometry" />
        </mxCell>
        <mxCell id="4YIqJ9_skGSq3MTqp_Pp-34" value="&lt;font&gt;&lt;font style=&quot;font-size: 14px&quot;&gt;json-mask&lt;/font&gt;&lt;br&gt;&lt;/font&gt;" style="shape=folder;fontStyle=1;spacingTop=10;tabWidth=40;tabHeight=14;tabPosition=left;html=1;" parent="1" vertex="1">
          <mxGeometry x="1820.98" y="310" width="180" height="130" as="geometry" />
        </mxCell>
        <mxCell id="4YIqJ9_skGSq3MTqp_Pp-36" value="&lt;font&gt;&lt;font style=&quot;font-size: 14px&quot;&gt;fetch-api&lt;/font&gt;&lt;br&gt;&lt;br&gt;&lt;font style=&quot;font-size: 14px ; font-weight: normal&quot;&gt;v3.7.3&lt;/font&gt;&lt;br&gt;&lt;/font&gt;" style="shape=folder;fontStyle=1;spacingTop=10;tabWidth=40;tabHeight=14;tabPosition=left;html=1;" parent="1" vertex="1">
          <mxGeometry x="1690" y="68.06" width="180" height="130" as="geometry" />
        </mxCell>
        <mxCell id="4YIqJ9_skGSq3MTqp_Pp-37" value="&lt;font&gt;&lt;font style=&quot;font-size: 14px&quot;&gt;colors&lt;/font&gt;&lt;br&gt;&lt;/font&gt;" style="shape=folder;fontStyle=1;spacingTop=10;tabWidth=40;tabHeight=14;tabPosition=left;html=1;" parent="1" vertex="1">
          <mxGeometry x="2080" y="310" width="180" height="130" as="geometry" />
        </mxCell>
        <mxCell id="4YIqJ9_skGSq3MTqp_Pp-38" value="Use" style="endArrow=open;endSize=12;dashed=1;html=1;entryX=0.183;entryY=1.059;entryDx=0;entryDy=0;entryPerimeter=0;" parent="1" target="4YIqJ9_skGSq3MTqp_Pp-15" edge="1">
          <mxGeometry width="160" relative="1" as="geometry">
            <mxPoint x="-230" y="650" as="sourcePoint" />
            <mxPoint x="20" y="480" as="targetPoint" />
          </mxGeometry>
        </mxCell>
        <mxCell id="4YIqJ9_skGSq3MTqp_Pp-39" value="Use" style="endArrow=open;endSize=12;dashed=1;html=1;entryX=0.544;entryY=1.022;entryDx=0;entryDy=0;entryPerimeter=0;" parent="1" target="4YIqJ9_skGSq3MTqp_Pp-15" edge="1">
          <mxGeometry width="160" relative="1" as="geometry">
            <mxPoint x="20" y="650" as="sourcePoint" />
            <mxPoint x="180" y="470" as="targetPoint" />
          </mxGeometry>
        </mxCell>
        <mxCell id="4YIqJ9_skGSq3MTqp_Pp-40" value="Use" style="endArrow=open;endSize=12;dashed=1;html=1;entryX=0.841;entryY=1.059;entryDx=0;entryDy=0;entryPerimeter=0;" parent="1" target="4YIqJ9_skGSq3MTqp_Pp-15" edge="1">
          <mxGeometry width="160" relative="1" as="geometry">
            <mxPoint x="290" y="650" as="sourcePoint" />
            <mxPoint x="297.9200000000001" y="471.98" as="targetPoint" />
          </mxGeometry>
        </mxCell>
        <mxCell id="4YIqJ9_skGSq3MTqp_Pp-41" value="Use" style="endArrow=open;endSize=12;dashed=1;html=1;entryX=0;entryY=0.844;entryDx=0;entryDy=0;entryPerimeter=0;" parent="1" target="4YIqJ9_skGSq3MTqp_Pp-9" edge="1">
          <mxGeometry width="160" relative="1" as="geometry">
            <mxPoint x="-110" y="210" as="sourcePoint" />
            <mxPoint x="650" y="75" as="targetPoint" />
          </mxGeometry>
        </mxCell>
        <mxCell id="4YIqJ9_skGSq3MTqp_Pp-42" value="NOT_FOUND" style="html=1;dropTarget=0;" parent="1" vertex="1">
          <mxGeometry x="460" y="610" width="180" height="95" as="geometry" />
        </mxCell>
        <mxCell id="4YIqJ9_skGSq3MTqp_Pp-43" value="" style="shape=module;jettyWidth=8;jettyHeight=4;" parent="4YIqJ9_skGSq3MTqp_Pp-42" vertex="1">
          <mxGeometry x="1" width="20" height="20" relative="1" as="geometry">
            <mxPoint x="-27" y="7" as="offset" />
          </mxGeometry>
        </mxCell>
        <mxCell id="4YIqJ9_skGSq3MTqp_Pp-46" value="Use" style="endArrow=open;endSize=12;dashed=1;html=1;exitX=0;exitY=0;exitDx=0;exitDy=0;entryX=1;entryY=0.75;entryDx=0;entryDy=0;" parent="1" source="4YIqJ9_skGSq3MTqp_Pp-42" target="4YIqJ9_skGSq3MTqp_Pp-15" edge="1">
          <mxGeometry width="160" relative="1" as="geometry">
            <mxPoint x="300" y="660" as="sourcePoint" />
            <mxPoint x="30" y="482" as="targetPoint" />
          </mxGeometry>
        </mxCell>
        <mxCell id="KczL7LweS5aCczgaJEiZ-11" value="Label" style="endArrow=classic;html=1;exitX=0.65;exitY=1.023;exitDx=0;exitDy=0;exitPerimeter=0;entryX=0.578;entryY=0.085;entryDx=0;entryDy=0;entryPerimeter=0;" edge="1" parent="1" source="4YIqJ9_skGSq3MTqp_Pp-36" target="4YIqJ9_skGSq3MTqp_Pp-34">
          <mxGeometry relative="1" as="geometry">
            <mxPoint x="1270" y="540" as="sourcePoint" />
            <mxPoint x="1490" y="540" as="targetPoint" />
          </mxGeometry>
        </mxCell>
        <mxCell id="KczL7LweS5aCczgaJEiZ-12" value="&lt;font style=&quot;font-size: 14px&quot;&gt;import&lt;/font&gt;" style="edgeLabel;resizable=0;html=1;align=center;verticalAlign=middle;" connectable="0" vertex="1" parent="KczL7LweS5aCczgaJEiZ-11">
          <mxGeometry relative="1" as="geometry">
            <mxPoint x="1" as="offset" />
          </mxGeometry>
        </mxCell>
        <mxCell id="KczL7LweS5aCczgaJEiZ-14" value="&lt;font style=&quot;font-size: 14px&quot;&gt;v1.0.4&lt;/font&gt;" style="edgeLabel;resizable=0;html=1;align=right;verticalAlign=bottom;" connectable="0" vertex="1" parent="KczL7LweS5aCczgaJEiZ-11">
          <mxGeometry x="1" relative="1" as="geometry">
            <mxPoint x="45" as="offset" />
          </mxGeometry>
        </mxCell>
        <mxCell id="KczL7LweS5aCczgaJEiZ-15" value="Label" style="endArrow=classic;html=1;entryX=0.444;entryY=0.077;entryDx=0;entryDy=0;entryPerimeter=0;exitX=0.872;exitY=1;exitDx=0;exitDy=0;exitPerimeter=0;" edge="1" parent="1" source="4YIqJ9_skGSq3MTqp_Pp-36" target="4YIqJ9_skGSq3MTqp_Pp-37">
          <mxGeometry relative="1" as="geometry">
            <mxPoint x="2050" y="300" as="sourcePoint" />
            <mxPoint x="1960" y="329.99999999999994" as="targetPoint" />
          </mxGeometry>
        </mxCell>
        <mxCell id="KczL7LweS5aCczgaJEiZ-16" value="&lt;font style=&quot;font-size: 14px&quot;&gt;import&lt;/font&gt;" style="edgeLabel;resizable=0;html=1;align=center;verticalAlign=middle;" connectable="0" vertex="1" parent="KczL7LweS5aCczgaJEiZ-15">
          <mxGeometry relative="1" as="geometry">
            <mxPoint x="1" as="offset" />
          </mxGeometry>
        </mxCell>
        <mxCell id="KczL7LweS5aCczgaJEiZ-18" value="&lt;font style=&quot;font-size: 14px&quot;&gt;v1.4.0&lt;/font&gt;" style="edgeLabel;resizable=0;html=1;align=right;verticalAlign=bottom;" connectable="0" vertex="1" parent="KczL7LweS5aCczgaJEiZ-15">
          <mxGeometry x="1" relative="1" as="geometry">
            <mxPoint x="40" as="offset" />
          </mxGeometry>
        </mxCell>
        <mxCell id="KczL7LweS5aCczgaJEiZ-19" value="Label" style="endArrow=classic;html=1;entryX=0.417;entryY=0.077;entryDx=0;entryDy=0;entryPerimeter=0;" edge="1" parent="1" target="4YIqJ9_skGSq3MTqp_Pp-33">
          <mxGeometry relative="1" as="geometry">
            <mxPoint x="1750" y="199" as="sourcePoint" />
            <mxPoint x="1750" y="299.99999999999994" as="targetPoint" />
          </mxGeometry>
        </mxCell>
        <mxCell id="KczL7LweS5aCczgaJEiZ-20" value="&lt;font style=&quot;font-size: 14px&quot;&gt;import&lt;/font&gt;" style="edgeLabel;resizable=0;html=1;align=center;verticalAlign=middle;" connectable="0" vertex="1" parent="KczL7LweS5aCczgaJEiZ-19">
          <mxGeometry relative="1" as="geometry">
            <mxPoint x="1" as="offset" />
          </mxGeometry>
        </mxCell>
        <mxCell id="KczL7LweS5aCczgaJEiZ-22" value="&lt;font style=&quot;font-size: 14px&quot;&gt;v2.6.1&lt;/font&gt;" style="edgeLabel;resizable=0;html=1;align=right;verticalAlign=bottom;" connectable="0" vertex="1" parent="KczL7LweS5aCczgaJEiZ-19">
          <mxGeometry x="1" relative="1" as="geometry">
            <mxPoint x="55" as="offset" />
          </mxGeometry>
        </mxCell>
        <mxCell id="KczL7LweS5aCczgaJEiZ-23" value="Label" style="endArrow=classic;html=1;entryX=0.572;entryY=0.1;entryDx=0;entryDy=0;entryPerimeter=0;exitX=0.056;exitY=1.007;exitDx=0;exitDy=0;exitPerimeter=0;" edge="1" parent="1" source="4YIqJ9_skGSq3MTqp_Pp-36" target="4YIqJ9_skGSq3MTqp_Pp-32">
          <mxGeometry relative="1" as="geometry">
            <mxPoint x="1640" y="200" as="sourcePoint" />
            <mxPoint x="1340" y="290" as="targetPoint" />
          </mxGeometry>
        </mxCell>
        <mxCell id="KczL7LweS5aCczgaJEiZ-24" value="&lt;font style=&quot;font-size: 14px&quot;&gt;import&lt;/font&gt;" style="edgeLabel;resizable=0;html=1;align=center;verticalAlign=middle;" connectable="0" vertex="1" parent="KczL7LweS5aCczgaJEiZ-23">
          <mxGeometry relative="1" as="geometry">
            <mxPoint x="1" as="offset" />
          </mxGeometry>
        </mxCell>
        <mxCell id="KczL7LweS5aCczgaJEiZ-26" value="&lt;span style=&quot;font-family: , &amp;#34;consolas&amp;#34; , &amp;#34;liberation mono&amp;#34; , &amp;#34;menlo&amp;#34; , monospace&quot;&gt;&lt;font style=&quot;font-size: 14px&quot;&gt;v6.13.7&lt;/font&gt;&lt;/span&gt;" style="edgeLabel;resizable=0;html=1;align=right;verticalAlign=bottom;" connectable="0" vertex="1" parent="KczL7LweS5aCczgaJEiZ-23">
          <mxGeometry x="1" relative="1" as="geometry">
            <mxPoint x="-4" as="offset" />
          </mxGeometry>
        </mxCell>
        <mxCell id="KczL7LweS5aCczgaJEiZ-27" value="&lt;span style=&quot;font-family: , &amp;#34;consolas&amp;#34; , &amp;#34;liberation mono&amp;#34; , &amp;#34;menlo&amp;#34; , monospace ; background-color: rgb(255 , 255 , 255)&quot;&gt;&lt;font style=&quot;font-size: 14px&quot;&gt;redux&lt;/font&gt;&lt;/span&gt;" style="shape=folder;fontStyle=1;spacingTop=10;tabWidth=40;tabHeight=14;tabPosition=left;html=1;" vertex="1" parent="1">
          <mxGeometry x="1280" y="890" width="180" height="130" as="geometry" />
        </mxCell>
        <mxCell id="KczL7LweS5aCczgaJEiZ-28" value="&lt;font&gt;&lt;span style=&quot;background-color: rgb(255 , 255 , 255)&quot;&gt;&lt;font style=&quot;font-size: 14px&quot;&gt;redux-batched-actions&lt;/font&gt;&lt;/span&gt;&lt;br&gt;&lt;/font&gt;" style="shape=folder;fontStyle=1;spacingTop=10;tabWidth=40;tabHeight=14;tabPosition=left;html=1;" vertex="1" parent="1">
          <mxGeometry x="1490" y="890" width="180" height="130" as="geometry" />
        </mxCell>
        <mxCell id="KczL7LweS5aCczgaJEiZ-29" value="&lt;font&gt;&lt;span style=&quot;background-color: rgb(255 , 255 , 255)&quot;&gt;&lt;font style=&quot;font-size: 14px&quot;&gt;redux-devtools-extension&lt;/font&gt;&lt;/span&gt;&lt;br&gt;&lt;/font&gt;" style="shape=folder;fontStyle=1;spacingTop=10;tabWidth=40;tabHeight=14;tabPosition=left;html=1;" vertex="1" parent="1">
          <mxGeometry x="1700.98" y="890" width="180" height="130" as="geometry" />
        </mxCell>
        <mxCell id="KczL7LweS5aCczgaJEiZ-30" value="&lt;font&gt;&lt;span style=&quot;background-color: rgb(255 , 255 , 255)&quot;&gt;&lt;font style=&quot;font-size: 14px&quot;&gt;redux-core-modules&lt;/font&gt;&lt;/span&gt;&lt;span style=&quot;font-size: 18px&quot;&gt;&lt;br&gt;&lt;/span&gt;&lt;br&gt;&lt;font style=&quot;font-size: 14px ; font-weight: normal&quot;&gt;v1.3.2&lt;/font&gt;&lt;br&gt;&lt;/font&gt;" style="shape=folder;fontStyle=1;spacingTop=10;tabWidth=40;tabHeight=14;tabPosition=left;html=1;" vertex="1" parent="1">
          <mxGeometry x="1600" y="690" width="180" height="130" as="geometry" />
        </mxCell>
        <mxCell id="KczL7LweS5aCczgaJEiZ-31" value="&lt;font&gt;&lt;span style=&quot;font-family: , &amp;#34;consolas&amp;#34; , &amp;#34;liberation mono&amp;#34; , &amp;#34;menlo&amp;#34; , monospace ; background-color: rgb(255 , 255 , 255)&quot;&gt;&lt;font style=&quot;font-size: 14px&quot;&gt;redux-saga&lt;/font&gt;&lt;/span&gt;&lt;br&gt;&lt;/font&gt;" style="shape=folder;fontStyle=1;spacingTop=10;tabWidth=40;tabHeight=14;tabPosition=left;html=1;" vertex="1" parent="1">
          <mxGeometry x="1910.98" y="890" width="180" height="130" as="geometry" />
        </mxCell>
        <mxCell id="KczL7LweS5aCczgaJEiZ-32" value="Label" style="endArrow=classic;html=1;exitX=0.65;exitY=1.023;exitDx=0;exitDy=0;exitPerimeter=0;entryX=0.578;entryY=0.085;entryDx=0;entryDy=0;entryPerimeter=0;" edge="1" parent="1" source="KczL7LweS5aCczgaJEiZ-30" target="KczL7LweS5aCczgaJEiZ-29">
          <mxGeometry relative="1" as="geometry">
            <mxPoint x="1150" y="1161.94" as="sourcePoint" />
            <mxPoint x="1370" y="1161.94" as="targetPoint" />
          </mxGeometry>
        </mxCell>
        <mxCell id="KczL7LweS5aCczgaJEiZ-33" value="&lt;font style=&quot;font-size: 14px&quot;&gt;import&lt;/font&gt;" style="edgeLabel;resizable=0;html=1;align=center;verticalAlign=middle;" connectable="0" vertex="1" parent="KczL7LweS5aCczgaJEiZ-32">
          <mxGeometry relative="1" as="geometry">
            <mxPoint x="1" as="offset" />
          </mxGeometry>
        </mxCell>
        <mxCell id="KczL7LweS5aCczgaJEiZ-34" value="&lt;font style=&quot;font-size: 14px&quot;&gt;&lt;font&gt;v&lt;/font&gt;&lt;span style=&quot;font-family: , &amp;#34;consolas&amp;#34; , &amp;#34;liberation mono&amp;#34; , &amp;#34;menlo&amp;#34; , monospace&quot;&gt;2.13.8&lt;/span&gt;&lt;/font&gt;" style="edgeLabel;resizable=0;html=1;align=right;verticalAlign=bottom;" connectable="0" vertex="1" parent="KczL7LweS5aCczgaJEiZ-32">
          <mxGeometry x="1" relative="1" as="geometry">
            <mxPoint x="45" as="offset" />
          </mxGeometry>
        </mxCell>
        <mxCell id="KczL7LweS5aCczgaJEiZ-35" value="Label" style="endArrow=classic;html=1;entryX=0.444;entryY=0.077;entryDx=0;entryDy=0;entryPerimeter=0;exitX=0.872;exitY=1;exitDx=0;exitDy=0;exitPerimeter=0;" edge="1" parent="1" source="KczL7LweS5aCczgaJEiZ-30" target="KczL7LweS5aCczgaJEiZ-31">
          <mxGeometry relative="1" as="geometry">
            <mxPoint x="1930" y="921.94" as="sourcePoint" />
            <mxPoint x="1840" y="951.94" as="targetPoint" />
          </mxGeometry>
        </mxCell>
        <mxCell id="KczL7LweS5aCczgaJEiZ-36" value="&lt;font style=&quot;font-size: 14px&quot;&gt;import&lt;/font&gt;" style="edgeLabel;resizable=0;html=1;align=center;verticalAlign=middle;" connectable="0" vertex="1" parent="KczL7LweS5aCczgaJEiZ-35">
          <mxGeometry relative="1" as="geometry">
            <mxPoint x="1" as="offset" />
          </mxGeometry>
        </mxCell>
        <mxCell id="KczL7LweS5aCczgaJEiZ-37" value="&lt;font style=&quot;font-size: 14px&quot;&gt;&lt;font&gt;v&lt;/font&gt;&lt;span style=&quot;font-family: , &amp;#34;consolas&amp;#34; , &amp;#34;liberation mono&amp;#34; , &amp;#34;menlo&amp;#34; , monospace&quot;&gt;1.1.1&lt;/span&gt;&lt;/font&gt;" style="edgeLabel;resizable=0;html=1;align=right;verticalAlign=bottom;" connectable="0" vertex="1" parent="KczL7LweS5aCczgaJEiZ-35">
          <mxGeometry x="1" relative="1" as="geometry">
            <mxPoint x="40" as="offset" />
          </mxGeometry>
        </mxCell>
        <mxCell id="KczL7LweS5aCczgaJEiZ-38" value="Label" style="endArrow=classic;html=1;entryX=0.417;entryY=0.077;entryDx=0;entryDy=0;entryPerimeter=0;exitX=0.5;exitY=1;exitDx=0;exitDy=0;exitPerimeter=0;" edge="1" parent="1" target="KczL7LweS5aCczgaJEiZ-28" source="KczL7LweS5aCczgaJEiZ-30">
          <mxGeometry relative="1" as="geometry">
            <mxPoint x="1630" y="820.94" as="sourcePoint" />
            <mxPoint x="1630" y="921.94" as="targetPoint" />
          </mxGeometry>
        </mxCell>
        <mxCell id="KczL7LweS5aCczgaJEiZ-39" value="&lt;font style=&quot;font-size: 14px&quot;&gt;import&lt;/font&gt;" style="edgeLabel;resizable=0;html=1;align=center;verticalAlign=middle;" connectable="0" vertex="1" parent="KczL7LweS5aCczgaJEiZ-38">
          <mxGeometry relative="1" as="geometry">
            <mxPoint x="1" as="offset" />
          </mxGeometry>
        </mxCell>
        <mxCell id="KczL7LweS5aCczgaJEiZ-40" value="&lt;font style=&quot;font-size: 14px&quot;&gt;&lt;font&gt;v&lt;/font&gt;&lt;span style=&quot;font-family: , &amp;#34;consolas&amp;#34; , &amp;#34;liberation mono&amp;#34; , &amp;#34;menlo&amp;#34; , monospace&quot;&gt;0.4.1&lt;/span&gt;&lt;/font&gt;" style="edgeLabel;resizable=0;html=1;align=right;verticalAlign=bottom;" connectable="0" vertex="1" parent="KczL7LweS5aCczgaJEiZ-38">
          <mxGeometry x="1" relative="1" as="geometry">
            <mxPoint x="55" as="offset" />
          </mxGeometry>
        </mxCell>
        <mxCell id="KczL7LweS5aCczgaJEiZ-41" value="Label" style="endArrow=classic;html=1;exitX=0;exitY=0;exitDx=0;exitDy=72;exitPerimeter=0;" edge="1" parent="1" source="KczL7LweS5aCczgaJEiZ-30">
          <mxGeometry relative="1" as="geometry">
            <mxPoint x="1540" y="821" as="sourcePoint" />
            <mxPoint x="1250" y="762" as="targetPoint" />
          </mxGeometry>
        </mxCell>
        <mxCell id="KczL7LweS5aCczgaJEiZ-42" value="&lt;font style=&quot;font-size: 14px&quot;&gt;import&lt;/font&gt;" style="edgeLabel;resizable=0;html=1;align=center;verticalAlign=middle;" connectable="0" vertex="1" parent="KczL7LweS5aCczgaJEiZ-41">
          <mxGeometry relative="1" as="geometry">
            <mxPoint x="1" as="offset" />
          </mxGeometry>
        </mxCell>
        <mxCell id="KczL7LweS5aCczgaJEiZ-43" value="&lt;span style=&quot;font-family: , &amp;#34;consolas&amp;#34; , &amp;#34;liberation mono&amp;#34; , &amp;#34;menlo&amp;#34; , monospace&quot;&gt;&lt;font style=&quot;font-size: 14px&quot;&gt;v6.13.7&lt;/font&gt;&lt;/span&gt;" style="edgeLabel;resizable=0;html=1;align=right;verticalAlign=bottom;" connectable="0" vertex="1" parent="KczL7LweS5aCczgaJEiZ-41">
          <mxGeometry x="1" relative="1" as="geometry">
            <mxPoint x="-4" as="offset" />
          </mxGeometry>
        </mxCell>
        <mxCell id="KczL7LweS5aCczgaJEiZ-44" value="&lt;span style=&quot;background-color: rgb(255 , 255 , 255)&quot;&gt;&lt;font style=&quot;font-size: 14px&quot;&gt;react-redux&lt;/font&gt;&lt;/span&gt;" style="shape=folder;fontStyle=1;spacingTop=10;tabWidth=40;tabHeight=14;tabPosition=left;html=1;" vertex="1" parent="1">
          <mxGeometry x="1070" y="890" width="180" height="130" as="geometry" />
        </mxCell>
        <mxCell id="KczL7LweS5aCczgaJEiZ-45" value="&lt;font&gt;&lt;span style=&quot;font-family: , &amp;#34;consolas&amp;#34; , &amp;#34;liberation mono&amp;#34; , &amp;#34;menlo&amp;#34; , monospace ; background-color: rgb(255 , 255 , 255)&quot;&gt;&lt;font style=&quot;font-size: 14px&quot;&gt;reselect&lt;/font&gt;&lt;/span&gt;&lt;br&gt;&lt;/font&gt;" style="shape=folder;fontStyle=1;spacingTop=10;tabWidth=40;tabHeight=14;tabPosition=left;html=1;" vertex="1" parent="1">
          <mxGeometry x="2120" y="890" width="180" height="130" as="geometry" />
        </mxCell>
        <mxCell id="KczL7LweS5aCczgaJEiZ-46" value="&lt;span style=&quot;font-family: , &amp;#34;consolas&amp;#34; , &amp;#34;liberation mono&amp;#34; , &amp;#34;menlo&amp;#34; , monospace ; background-color: rgb(255 , 255 , 255)&quot;&gt;&lt;font style=&quot;font-size: 14px&quot;&gt;js-file-download&lt;/font&gt;&lt;/span&gt;" style="shape=folder;fontStyle=1;spacingTop=10;tabWidth=40;tabHeight=14;tabPosition=left;html=1;" vertex="1" parent="1">
          <mxGeometry x="1070" y="700" width="180" height="130" as="geometry" />
        </mxCell>
        <mxCell id="KczL7LweS5aCczgaJEiZ-47" value="&lt;span style=&quot;background-color: rgb(255 , 255 , 255)&quot;&gt;&lt;font style=&quot;font-size: 14px&quot;&gt;uniqid&lt;/font&gt;&lt;/span&gt;" style="shape=folder;fontStyle=1;spacingTop=10;tabWidth=40;tabHeight=14;tabPosition=left;html=1;" vertex="1" parent="1">
          <mxGeometry x="2120" y="690" width="180" height="130" as="geometry" />
        </mxCell>
        <mxCell id="KczL7LweS5aCczgaJEiZ-48" value="&lt;font style=&quot;font-size: 14px&quot;&gt;&lt;font&gt;v&lt;/font&gt;&lt;span style=&quot;font-family: , &amp;#34;consolas&amp;#34; , &amp;#34;liberation mono&amp;#34; , &amp;#34;menlo&amp;#34; , monospace&quot;&gt;0.4.11&lt;/span&gt;&lt;/font&gt;" style="edgeLabel;resizable=0;html=1;align=right;verticalAlign=bottom;" connectable="0" vertex="1" parent="1">
          <mxGeometry x="1299.9957586579476" y="755.0041960123071" as="geometry" />
        </mxCell>
        <mxCell id="KczL7LweS5aCczgaJEiZ-49" value="Label" style="endArrow=classic;html=1;entryX=0.494;entryY=0.077;entryDx=0;entryDy=0;entryPerimeter=0;exitX=-0.006;exitY=0.654;exitDx=0;exitDy=0;exitPerimeter=0;" edge="1" parent="1" source="KczL7LweS5aCczgaJEiZ-30" target="KczL7LweS5aCczgaJEiZ-44">
          <mxGeometry relative="1" as="geometry">
            <mxPoint x="1544.94" y="790" as="sourcePoint" />
            <mxPoint x="1420.0000000000005" y="870.01" as="targetPoint" />
          </mxGeometry>
        </mxCell>
        <mxCell id="KczL7LweS5aCczgaJEiZ-50" value="&lt;font style=&quot;font-size: 14px&quot;&gt;import&lt;/font&gt;" style="edgeLabel;resizable=0;html=1;align=center;verticalAlign=middle;" connectable="0" vertex="1" parent="KczL7LweS5aCczgaJEiZ-49">
          <mxGeometry relative="1" as="geometry">
            <mxPoint x="1" as="offset" />
          </mxGeometry>
        </mxCell>
        <mxCell id="KczL7LweS5aCczgaJEiZ-51" value="&lt;font style=&quot;font-size: 14px&quot;&gt;&lt;font&gt;v&lt;/font&gt;&lt;span style=&quot;font-family: , &amp;#34;consolas&amp;#34; , &amp;#34;liberation mono&amp;#34; , &amp;#34;menlo&amp;#34; , monospace&quot;&gt;7.2.0&lt;/span&gt;&lt;/font&gt;" style="edgeLabel;resizable=0;html=1;align=right;verticalAlign=bottom;" connectable="0" vertex="1" parent="KczL7LweS5aCczgaJEiZ-49">
          <mxGeometry x="1" relative="1" as="geometry">
            <mxPoint x="55" as="offset" />
          </mxGeometry>
        </mxCell>
        <mxCell id="KczL7LweS5aCczgaJEiZ-52" value="Label" style="endArrow=classic;html=1;entryX=0.506;entryY=0.1;entryDx=0;entryDy=0;entryPerimeter=0;exitX=-0.011;exitY=0.854;exitDx=0;exitDy=0;exitPerimeter=0;" edge="1" parent="1" source="KczL7LweS5aCczgaJEiZ-30" target="KczL7LweS5aCczgaJEiZ-27">
          <mxGeometry relative="1" as="geometry">
            <mxPoint x="1608.92" y="785.02" as="sourcePoint" />
            <mxPoint x="1168.92" y="910.01" as="targetPoint" />
          </mxGeometry>
        </mxCell>
        <mxCell id="KczL7LweS5aCczgaJEiZ-53" value="&lt;font style=&quot;font-size: 14px&quot;&gt;import&lt;/font&gt;" style="edgeLabel;resizable=0;html=1;align=center;verticalAlign=middle;" connectable="0" vertex="1" parent="KczL7LweS5aCczgaJEiZ-52">
          <mxGeometry relative="1" as="geometry">
            <mxPoint x="1" as="offset" />
          </mxGeometry>
        </mxCell>
        <mxCell id="KczL7LweS5aCczgaJEiZ-54" value="&lt;font style=&quot;font-size: 14px&quot;&gt;&lt;font&gt;v&lt;/font&gt;&lt;span style=&quot;font-family: , &amp;#34;consolas&amp;#34; , &amp;#34;liberation mono&amp;#34; , &amp;#34;menlo&amp;#34; , monospace&quot;&gt;4.0.5&lt;/span&gt;&lt;/font&gt;" style="edgeLabel;resizable=0;html=1;align=right;verticalAlign=bottom;" connectable="0" vertex="1" parent="KczL7LweS5aCczgaJEiZ-52">
          <mxGeometry x="1" relative="1" as="geometry">
            <mxPoint x="55" as="offset" />
          </mxGeometry>
        </mxCell>
        <mxCell id="KczL7LweS5aCczgaJEiZ-55" value="Label" style="endArrow=classic;html=1;entryX=0;entryY=0;entryDx=0;entryDy=72;entryPerimeter=0;exitX=0;exitY=0;exitDx=180;exitDy=72;exitPerimeter=0;" edge="1" parent="1" source="KczL7LweS5aCczgaJEiZ-30" target="KczL7LweS5aCczgaJEiZ-47">
          <mxGeometry relative="1" as="geometry">
            <mxPoint x="1784" y="762" as="sourcePoint" />
            <mxPoint x="1600" y="871.98" as="targetPoint" />
          </mxGeometry>
        </mxCell>
        <mxCell id="KczL7LweS5aCczgaJEiZ-56" value="&lt;font style=&quot;font-size: 14px&quot;&gt;import&lt;/font&gt;" style="edgeLabel;resizable=0;html=1;align=center;verticalAlign=middle;" connectable="0" vertex="1" parent="KczL7LweS5aCczgaJEiZ-55">
          <mxGeometry relative="1" as="geometry">
            <mxPoint x="1" as="offset" />
          </mxGeometry>
        </mxCell>
        <mxCell id="KczL7LweS5aCczgaJEiZ-57" value="&lt;font style=&quot;font-size: 14px&quot;&gt;&lt;font&gt;v&lt;/font&gt;&lt;span style=&quot;font-family: , &amp;#34;consolas&amp;#34; , &amp;#34;liberation mono&amp;#34; , &amp;#34;menlo&amp;#34; , monospace&quot;&gt;5.3.0&lt;/span&gt;&lt;/font&gt;" style="edgeLabel;resizable=0;html=1;align=right;verticalAlign=bottom;" connectable="0" vertex="1" parent="KczL7LweS5aCczgaJEiZ-55">
          <mxGeometry x="1" relative="1" as="geometry">
            <mxPoint x="-10" y="-12" as="offset" />
          </mxGeometry>
        </mxCell>
        <mxCell id="KczL7LweS5aCczgaJEiZ-58" value="Label" style="endArrow=classic;html=1;entryX=0.411;entryY=0.1;entryDx=0;entryDy=0;entryPerimeter=0;exitX=1.006;exitY=0.708;exitDx=0;exitDy=0;exitPerimeter=0;" edge="1" parent="1" source="KczL7LweS5aCczgaJEiZ-30" target="KczL7LweS5aCczgaJEiZ-45">
          <mxGeometry relative="1" as="geometry">
            <mxPoint x="1794.01" y="800" as="sourcePoint" />
            <mxPoint x="2027.9499999999996" y="880.01" as="targetPoint" />
          </mxGeometry>
        </mxCell>
        <mxCell id="KczL7LweS5aCczgaJEiZ-59" value="&lt;font style=&quot;font-size: 14px&quot;&gt;import&lt;/font&gt;" style="edgeLabel;resizable=0;html=1;align=center;verticalAlign=middle;" connectable="0" vertex="1" parent="KczL7LweS5aCczgaJEiZ-58">
          <mxGeometry relative="1" as="geometry">
            <mxPoint x="1" as="offset" />
          </mxGeometry>
        </mxCell>
        <mxCell id="KczL7LweS5aCczgaJEiZ-60" value="&lt;font style=&quot;font-size: 14px&quot;&gt;&lt;font&gt;v&lt;/font&gt;&lt;span style=&quot;font-family: , &amp;#34;consolas&amp;#34; , &amp;#34;liberation mono&amp;#34; , &amp;#34;menlo&amp;#34; , monospace&quot;&gt;4.0.0&lt;/span&gt;&lt;/font&gt;" style="edgeLabel;resizable=0;html=1;align=right;verticalAlign=bottom;" connectable="0" vertex="1" parent="KczL7LweS5aCczgaJEiZ-58">
          <mxGeometry x="1" relative="1" as="geometry">
            <mxPoint x="40" as="offset" />
          </mxGeometry>
        </mxCell>
      </root>
    </mxGraphModel>
  </diagram>
</mxfile>
